<?xml version="1.0" encoding="utf-8"?>
<!-- Generator: Adobe Illustrator 19.0.0, SVG Export Plug-In . SVG Version: 6.00 Build 0)  -->
<svg version="1.1" id="Слой_1" xmlns="http://www.w3.org/2000/svg" xmlns:xlink="http://www.w3.org/1999/xlink" x="0px" y="0px"
	 viewBox="0 0 195 58" style="enable-background:new 0 0 195 58;" xml:space="preserve">
<style type="text/css">
	.st0{fill:#80B9E5;}
	.st1{fill:#284B99;}
	.st2{fill:#81B8E5;}
	.st3{fill:#264B9A;}
	.st4{fill:#757576;}
</style>
<g id="XMLID_229_">
	<path id="XMLID_13_" class="st0" d="M13.3,41.8c0.3-1.2,2.8-1.7,4.9-1.9s4.2,0.1,5.3,0.1s4.6-0.3,6-0.7c3.7-1.1,10.2-3.8,14.8-1.8
		v14.6c0,0-4.3,1.3-6.2,1.7c-1.9,0.4-7,1.6-9.6,2.1c-1.4,0.3-4.6-0.1-8.3-2.7C16.5,50.6,6.2,42.4,3.4,39.1S-0.4,34,0.2,33
		c0.4-0.8,1.7-1.8,5.9,0.2c0,0,1.7-0.3,2.9,0.2c2.1,0.9,7.7,5.7,7.7,5.7s-2.6,0.3-3.6,1.4c-0.9,1-1.4,3.5,0.5,4.7
		c1.7,1.1,5.9,0.6,8.4,0.7c2.2,0.1,7.2-0.1,12.3,0.9c1.6,0.3,1.4-0.5,0.5-0.9c-0.9-0.4-2.7-0.8-5.9-1c-3.1-0.2-10.1-0.1-12.2-0.1
		C14.8,44.8,12.7,44.8,13.3,41.8z"/>
	<polygon id="XMLID_12_" class="st1" points="44.4,13.3 29.8,3.7 7.9,18.3 10.5,22.5 29.8,9.9 44.4,19.3 	"/>
	<polygon id="XMLID_11_" class="st1" points="37.9,4.6 37.9,11.1 44.4,15.6 44.4,4.6 	"/>
	<path id="XMLID_3_" class="st1" d="M29.8,12l-14.5,9.3v15.3l2.7,2.2c1.2-0.3,5.1,0.1,6.5,0.1c2.7,0,5.2-0.8,7.4-1.5
		c2.1-0.7,7.4-2.7,12.5-1.1V21.9L29.8,12z M33.3,30H27v-6.2h6.3V30z"/>
	<path id="XMLID_32_" class="st2" d="M54.5,18.2c-0.2,0-0.4,0.2-0.4,0.4v0.4h-0.4v-0.7c0-0.6-0.5-1.1-1.1-1.1
		c-0.6,0-1.1,0.5-1.1,1.1v0.2h-0.4v-0.2c0-0.6-0.5-1.1-1.1-1.1c-0.6,0-1.1,0.5-1.1,1.1v0.2h-0.4v-0.2c0-0.6-0.5-1.1-1.1-1.1
		c-0.6,0-1.1,0.5-1.1,1.1v6.7c0,0.6,0.5,1.1,1.1,1.1c0.6,0,1.1-0.5,1.1-1.1v-0.2h0.4v0.2c0,0.6,0.5,1.1,1.1,1.1
		c0.6,0,1.1-0.5,1.1-1.1v-0.2h0.4v0.2c0,0.6,0.5,1.1,1.1,1.1c0.6,0,1.1-0.5,1.1-1.1v-0.7h0.9c0.2,0,0.4-0.2,0.4-0.4
		s-0.2-0.4-0.4-0.4h-0.9V20h0.4v0.4c0,0.2,0.2,0.4,0.4,0.4s0.4-0.2,0.4-0.4v-1.8C55,18.4,54.8,18.2,54.5,18.2z M50.9,20.9h0.4v1.8
		h-0.4V20.9z M51.4,19.5V20h-0.4v-0.4H51.4z M48.3,20.9h0.4v1.8h-0.4V20.9z M48.7,19.5V20h-0.4v-0.4H48.7z M47.4,25.1
		c0,0.1-0.1,0.2-0.2,0.2s-0.2-0.1-0.2-0.2v-6.7c0-0.1,0.1-0.2,0.2-0.2s0.2,0.1,0.2,0.2v0.7v1.3v2.7v1.3V25.1z M48.3,24v-0.4h0.4V24
		H48.3z M50.1,25.1c0,0.1-0.1,0.2-0.2,0.2c-0.1,0-0.2-0.1-0.2-0.2v-0.7v-1.3v-2.7v-1.3v-0.7c0-0.1,0.1-0.2,0.2-0.2
		c0.1,0,0.2,0.1,0.2,0.2v0.7v1.3v2.7v1.3V25.1z M50.9,24v-0.4h0.4V24H50.9z M52.7,25.1c0,0.1-0.1,0.2-0.2,0.2
		c-0.1,0-0.2-0.1-0.2-0.2v-0.7v-1.3v-2.7v-1.3v-0.7c0-0.1,0.1-0.2,0.2-0.2c0.1,0,0.2,0.1,0.2,0.2V25.1z"/>
	<g id="XMLID_2_">
		<path id="XMLID_46_" class="st2" d="M48.5,7.6h-2.5v0.9h2V14h-2v0.9h2.5c0.2,0,0.4-0.2,0.4-0.4V8C48.9,7.8,48.8,7.6,48.5,7.6z"/>
		<path id="XMLID_35_" class="st2" d="M47.7,6.3h-1.6v0.9h1.2v0.4h-1.2v0.9h1.6c0.2,0,0.4-0.2,0.4-0.4V6.7
			C48.1,6.5,47.9,6.3,47.7,6.3z"/>
		<path id="XMLID_20_" class="st2" d="M55,11V9.7c0-0.2-0.2-0.4-0.4-0.4h-1.7c-0.2,0-0.4,0.2-0.4,0.4V11c0,0.2,0.2,0.4,0.4,0.4h1.7
			C54.8,11.4,55,11.2,55,11z M54.1,10.6h-0.9v-0.4h0.9V10.6z"/>
		<path id="XMLID_28_" class="st2" d="M48.5,4.5h-2.5v0.9h2v0.9h-2v0.9h2.5c0.2,0,0.4-0.2,0.4-0.4V5C48.9,4.7,48.8,4.5,48.5,4.5z"/>
		<path id="XMLID_14_" class="st2" d="M55,9.7V8c0-0.2-0.2-0.4-0.4-0.4h-6c-0.2,0-0.4,0.2-0.4,0.4v1.7c0,0.2,0.2,0.4,0.4,0.4h6
			C54.8,10.1,55,9.9,55,9.7z M54.1,9.3h-5.2V8.4h5.2V9.3z"/>
		<path id="XMLID_10_" class="st2" d="M51.1,5.4h-3c-0.2,0-0.4-0.2-0.4-0.4c0-0.2,0.2-0.4,0.4-0.4h3c0.2,0,0.4,0.2,0.4,0.4
			C51.5,5.2,51.3,5.4,51.1,5.4z"/>
		<path id="XMLID_9_" class="st2" d="M55,12.3v0.4c0,0.2-0.2,0.4-0.4,0.4c-0.2,0-0.4-0.2-0.4-0.4v-0.4c0-0.2,0.2-0.4,0.4-0.4
			C54.8,11.9,55,12.1,55,12.3z"/>
		<path id="XMLID_8_" class="st2" d="M55,14v0.4c0,0.2-0.2,0.4-0.4,0.4c-0.2,0-0.4-0.2-0.4-0.4V14c0-0.2,0.2-0.4,0.4-0.4
			C54.8,13.6,55,13.8,55,14z"/>
		<path id="XMLID_7_" class="st2" d="M53.3,12.3v0.4c0,0.2-0.2,0.4-0.4,0.4s-0.4-0.2-0.4-0.4v-0.4c0-0.2,0.2-0.4,0.4-0.4
			S53.3,12.1,53.3,12.3z"/>
		<path id="XMLID_4_" class="st2" d="M53.3,14v0.4c0,0.2-0.2,0.4-0.4,0.4s-0.4-0.2-0.4-0.4V14c0-0.2,0.2-0.4,0.4-0.4
			S53.3,13.8,53.3,14z"/>
	</g>
	<g id="XMLID_33_">
		<path id="XMLID_52_" class="st2" d="M54.6,33.8h-8.4v0.8h8.4c0.2,0,0.4,0.2,0.4,0.4c0,0.2-0.2,0.4-0.4,0.4h-8.4v0.8h8.4
			c0.7,0,1.3-0.6,1.3-1.3C55.8,34.4,55.2,33.8,54.6,33.8z"/>
		<path id="XMLID_50_" class="st2" d="M50,34.6h1.7c0.2,0,0.4-0.2,0.4-0.4v-2.5c0-0.2-0.2-0.4-0.4-0.4H50c-0.2,0-0.4,0.2-0.4,0.4
			v2.5C49.6,34.4,49.7,34.6,50,34.6z M50.4,33.8v-1.7h0.8v1.7H50.4z"/>
		<path id="XMLID_23_" class="st2" d="M51.9,33.3l1.3-0.8c0.2-0.1,0.2-0.4,0.1-0.6s-0.4-0.2-0.6-0.1l-1.3,0.8
			c-0.2,0.1-0.2,0.4-0.1,0.6C51.4,33.4,51.7,33.4,51.9,33.3z"/>
		<path id="XMLID_19_" class="st2" d="M50.2,32.6L49,31.8c-0.2-0.1-0.5-0.1-0.6,0.1s-0.1,0.5,0.1,0.6l1.3,0.8
			c0.2,0.1,0.5,0.1,0.6-0.1C50.4,33,50.4,32.7,50.2,32.6z"/>
		<path id="XMLID_18_" class="st2" d="M46.1,29.6h8v2.9h-0.4c-0.2,0-0.4,0.2-0.4,0.4c0,0.2,0.2,0.4,0.4,0.4h0.8
			c0.2,0,0.4-0.2,0.4-0.4v-3.8c0-0.2-0.2-0.4-0.4-0.4h-8.4V29.6z"/>
		<path id="XMLID_34_" class="st2" d="M47.1,36c0.6,1.7,2,2.8,3.7,2.8s3.1-1.1,3.7-2.8c0.1-0.3-0.1-0.6-0.4-0.6h-6.7
			C47.2,35.5,47,35.8,47.1,36z M53.5,36.3c-0.6,1-1.5,1.7-2.7,1.7s-2.1-0.6-2.7-1.7H53.5z"/>
	</g>
	<path id="XMLID_56_" class="st2" d="M54.4,44.5h-4.5v-1.6h0.4c0.2,0,0.4-0.2,0.4-0.4S50.5,42,50.3,42h-0.4v-0.1
		c0.5-0.2,0.8-0.6,0.8-1.2c0-0.7-0.6-1.2-1.2-1.2h-3.3v0.8h3.3c0.2,0,0.4,0.2,0.4,0.4c0,0.2-0.2,0.4-0.4,0.4h-3.3V42h2.9v3.7
		c0,0.7,0.6,1.2,1.2,1.2H54l0,1.1c0,0.5-0.4,0.8-0.8,0.8c0,0-0.4,0-0.4,0c-0.7,0-1.2,0.5-1.2,1.2c0,0,0,0,0,0l0,1.2h-5.4v0.8h5.8
		c0.2,0,0.4-0.2,0.4-0.4l0-1.6c0-0.2,0.2-0.4,0.4-0.4c0,0,0.4,0,0.4,0c0.9,0,1.6-0.7,1.6-1.6c0,0,0,0,0,0l0-1.2
		c0.5-0.2,0.8-0.6,0.8-1.1C55.6,45,55.1,44.5,54.4,44.5z M54.4,46.1h-4.1c-0.2,0-0.4-0.2-0.4-0.4v-0.4h4.5c0.2,0,0.4,0.2,0.4,0.4
		C54.8,45.9,54.6,46.1,54.4,46.1z"/>
</g>
<g id="XMLID_98_">
	<path id="XMLID_80_" class="st2" d="M68.5,4.1h-4.2c-0.3,0-0.5,0.2-0.5,0.5c0,0.3,0.2,0.5,0.5,0.5h1.6C65.9,5,66,5,66,5v9
		c0,0.3,0.2,0.5,0.5,0.5s0.5-0.2,0.5-0.5V5C66.9,5,67,5,67,5h1.5C68.8,5,69,4.8,69,4.5C69,4.3,68.8,4.1,68.5,4.1z"/>
	<path id="XMLID_123_" class="st2" d="M73.6,4c-0.8,0-1.4,0.3-1.8,0.8c-0.4,0.5-0.6,1.1-0.6,1.9v5.2c0,0.8,0.2,1.5,0.6,1.9
		c0.4,0.5,1,0.8,1.8,0.8c0.8,0,1.4-0.3,1.8-0.8c0.4-0.5,0.6-1.1,0.6-1.9V6.7c0-0.8-0.2-1.5-0.6-1.9C75,4.2,74.4,4,73.6,4z
		 M73.6,13.7c-1.2,0-1.4-1-1.4-1.8V6.7c0-0.8,0.2-1.8,1.4-1.8c1.2,0,1.4,1,1.4,1.8v5.3C75,12.7,74.8,13.7,73.6,13.7z"/>
	<path id="XMLID_120_" class="st2" d="M80.5,4.1h-1.7c-0.3,0-0.6,0.3-0.6,0.6V14c0,0.3,0.2,0.5,0.5,0.5s0.5-0.2,0.5-0.5l0-3.7h1.1
		c1.7,0,2.5-0.8,2.5-2.6V6.7C82.9,5,82.1,4.1,80.5,4.1z M80.4,9.4l-1.1,0l0-4.5h1.3c0.9,0,1.4,0.5,1.4,1.7v1.2
		C81.9,9,81.5,9.4,80.4,9.4z"/>
	<path id="XMLID_75_" class="st2" d="M88.8,4.1h-3.2c-0.3,0-0.6,0.3-0.6,0.6V14c0,0.3,0.2,0.5,0.5,0.5S86,14.3,86,14L86,5h2.8
		c0.3,0,0.5-0.2,0.5-0.5C89.2,4.3,89,4.1,88.8,4.1z"/>
	<path id="XMLID_116_" class="st2" d="M92.6,4c-0.8,0-1.4,0.3-1.8,0.8c-0.4,0.5-0.6,1.1-0.6,1.9v5.2c0,0.8,0.2,1.5,0.6,1.9
		c0.4,0.5,1,0.8,1.8,0.8c0.8,0,1.4-0.3,1.8-0.8c0.4-0.5,0.6-1.1,0.6-1.9V6.7c0-0.8-0.2-1.5-0.6-1.9C94.1,4.2,93.4,4,92.6,4z
		 M92.6,13.7c-1.2,0-1.4-1-1.4-1.8V6.7c0-0.8,0.2-1.8,1.4-1.8c1.2,0,1.4,1,1.4,1.8v5.3C94.1,12.7,93.8,13.7,92.6,13.7z"/>
	<path id="XMLID_112_" class="st2" d="M100.8,9c0.8-0.4,1-1.2,1-2V6.4c0-1.6-0.7-2.3-2.2-2.3h-1.7c-0.3,0-0.6,0.3-0.6,0.6v9.3
		c0,0.3,0.3,0.6,0.6,0.6h1.7c1.6,0,2.4-0.9,2.4-2.5v-0.9C102,10,101.6,9.3,100.8,9z M99.6,13.6l-1.4,0l0-4.2h1.1
		c1.2,0,1.6,0.5,1.6,1.6V12C101,13.1,100.6,13.6,99.6,13.6z M99.3,8.5l-1,0V5h1.3c0.9,0,1.3,0.4,1.3,1.5v0.7c0,0.6-0.1,1-0.4,1.2
		C100.2,8.5,99.9,8.5,99.3,8.5z"/>
	<path id="XMLID_109_" class="st2" d="M106.3,8.2h-1c0,0-0.1,0-0.1-0.1V4.6c0-0.3-0.2-0.5-0.5-0.5s-0.5,0.2-0.5,0.5v9.4
		c0,0.3,0.3,0.6,0.6,0.6h1.7c0.8,0,1.4-0.2,1.8-0.7c0.4-0.4,0.5-1.1,0.5-1.9v-1.1C108.8,9.1,108,8.2,106.3,8.2z M107.9,10.8V12
		c0,1.1-0.4,1.7-1.4,1.7l-1.3,0V9.2c0,0,0-0.1,0.1-0.1h1C107.4,9.2,107.9,9.6,107.9,10.8z"/>
	<path id="XMLID_67_" class="st2" d="M110,4.1c-0.3,0-0.5,0.2-0.5,0.5V14c0,0.3,0.2,0.5,0.5,0.5s0.5-0.2,0.5-0.5V4.6
		C110.5,4.3,110.2,4.1,110,4.1z"/>
	<path id="XMLID_66_" class="st2" d="M116.9,4.1c-0.3,0-0.5,0.2-0.6,0.4l-2.6,7.4V4.5c0-0.3-0.2-0.5-0.5-0.5s-0.5,0.2-0.5,0.5v9.4
		c0,0.3,0.3,0.6,0.6,0.6c0.3,0,0.5-0.2,0.6-0.4l2.8-7.9v7.8c0,0.3,0.2,0.5,0.5,0.5s0.5-0.2,0.5-0.5V4.7
		C117.6,4.4,117.3,4.1,116.9,4.1z"/>
	<path id="XMLID_65_" class="st2" d="M115.3,3.7c0.8,0,1.4-0.4,1.5-1.2c0-0.1,0-0.2-0.1-0.3c-0.1-0.1-0.2-0.1-0.3-0.1
		c-0.2,0-0.3,0.1-0.4,0.3c-0.1,0.5-0.5,0.5-0.8,0.5c-0.3,0-0.7-0.1-0.8-0.5c0-0.2-0.2-0.3-0.4-0.3c-0.1,0-0.2,0-0.3,0.1
		c-0.1,0.1-0.1,0.2-0.1,0.3C113.9,3.3,114.5,3.7,115.3,3.7z"/>
	<path id="XMLID_103_" class="st2" d="M129.4,13.6l-0.3,0v-9c0-0.3-0.3-0.6-0.6-0.6h-2.9c-0.3,0-0.6,0.3-0.6,0.6l-0.4,7.5
		c0,0.5-0.1,1-0.3,1.4c0,0.1-0.1,0.1-0.2,0.1h-0.1c-0.3,0-0.6,0.3-0.6,0.6v1.2c0,0.3,0.2,0.5,0.5,0.5c0.3,0,0.5-0.2,0.5-0.5l0-0.9
		l4.5,0v0.9c0,0.3,0.2,0.5,0.5,0.5c0.3,0,0.5-0.2,0.5-0.5v-1.2C130,13.9,129.7,13.6,129.4,13.6z M128.1,5v8.6c0,0,0,0.1-0.1,0.1
		l-2.7,0c0.2-0.4,0.3-0.9,0.3-1.5L126,5L128.1,5z"/>
	<path id="XMLID_100_" class="st2" d="M134.2,4c-0.8,0-1.4,0.3-1.8,0.8c-0.4,0.5-0.6,1.1-0.6,1.9v5.2c0,0.8,0.2,1.5,0.6,1.9
		c0.4,0.5,1,0.8,1.8,0.8c0.8,0,1.4-0.3,1.8-0.8c0.4-0.5,0.6-1.1,0.6-1.9V6.7c0-0.8-0.2-1.5-0.6-1.9C135.6,4.2,135,4,134.2,4z
		 M134.2,13.7c-1.2,0-1.4-1-1.4-1.8V6.7c0-0.8,0.2-1.8,1.4-1.8c1.2,0,1.4,1,1.4,1.8v5.3C135.6,12.7,135.4,13.7,134.2,13.7z"/>
	<path id="XMLID_60_" class="st2" d="M144.7,4.1L144.7,4.1L144.7,4.1c-0.3,0-0.6,0.2-0.7,0.5l-1.9,7.9l-1.9-7.9
		c-0.1-0.3-0.4-0.5-0.7-0.5c-0.4,0-0.7,0.3-0.7,0.7v9.3c0,0.3,0.2,0.5,0.5,0.5c0.2,0,0.4-0.2,0.4-0.5V6.7l1.8,7.4
		c0.1,0.3,0.3,0.4,0.6,0.4c0.3,0,0.5-0.2,0.6-0.4l1.7-7.4v7.4c0,0.3,0.2,0.5,0.5,0.5s0.5-0.2,0.5-0.5V4.8
		C145.3,4.4,145.1,4.1,144.7,4.1z"/>
</g>
<g id="XMLID_83_">
	<path id="XMLID_59_" class="st3" d="M68.2,22c-1.4,0-2.5,0.5-3.3,1.4c-0.7,0.9-1,2-1,3.5v8.7c0,1.5,0.3,2.6,1,3.4
		c0.7,1,1.9,1.5,3.3,1.5c1.4,0,2.5-0.5,3.3-1.5c0.6-0.8,1-2,1-3.4v-1.4c0-0.6-0.5-1.2-1.2-1.2s-1.2,0.5-1.2,1.2v1.5
		c0,0.8-0.2,1.5-0.5,1.9c-0.3,0.5-0.8,0.7-1.5,0.7c-0.7,0-1.2-0.2-1.5-0.7c-0.3-0.4-0.5-1.1-0.5-1.9v-8.8c0-0.8,0.2-1.5,0.5-1.9
		c0.3-0.5,0.8-0.7,1.5-0.7c0.7,0,1.2,0.2,1.5,0.7c0.3,0.4,0.5,1.1,0.5,1.9v0.9c0,0.6,0.5,1.2,1.2,1.2s1.2-0.5,1.2-1.2v-0.9
		c0-1.4-0.3-2.6-1-3.5C70.7,22.5,69.6,22,68.2,22z"/>
	<path id="XMLID_94_" class="st3" d="M81.9,23.4c-0.2-0.7-0.8-1.3-1.6-1.3c-0.8,0-1.4,0.5-1.6,1.3L75.3,39c-0.1,0.3,0,0.7,0.3,0.9
		c0.2,0.2,0.5,0.4,0.9,0.4c0.5,0,1-0.4,1.1-0.9l0.7-2.9h4.3l0.6,2.8c0.1,0.6,0.6,0.9,1.1,0.9c0.4,0,0.7-0.2,0.9-0.4
		c0.2-0.3,0.3-0.6,0.2-1L81.9,23.4z M78.6,34.4l1.7-7.6l1.7,7.6H78.6z"/>
	<path id="XMLID_53_" class="st3" d="M96,22.2L96,22.2c-0.7,0-1.2,0.5-1.2,1.2v6.8h-4v-6.8c0-0.7-0.5-1.2-1.2-1.2s-1.2,0.5-1.2,1.2
		v15.8c0,0.7,0.5,1.2,1.2,1.2s1.2-0.5,1.2-1.2v-6.8h4v6.8c0,0.7,0.5,1.2,1.2,1.2c0.7,0,1.2-0.5,1.2-1.2V23.3
		C97.2,22.7,96.7,22.2,96,22.2z"/>
	<path id="XMLID_51_" class="st3" d="M107.4,22.2h-7c-0.6,0-1.1,0.5-1.1,1.1c0,0.6,0.5,1.1,1.1,1.1h2.3v14.8c0,0.7,0.5,1.2,1.2,1.2
		c0.7,0,1.2-0.5,1.2-1.2V24.4h2.3c0.6,0,1.1-0.5,1.1-1.1C108.6,22.7,108.1,22.2,107.4,22.2z"/>
	<path id="XMLID_49_" class="st3" d="M118,24.4c0.6,0,1.1-0.5,1.1-1.1c0-0.6-0.5-1.1-1.1-1.1h-5.5c-0.8,0-1.3,0.6-1.3,1.3V39
		c0,0.8,0.6,1.3,1.3,1.3h5.5c0.6,0,1.1-0.5,1.1-1.1c0-0.6-0.5-1.1-1.1-1.1h-4.4v-5.8h3.5c0.6,0,1.1-0.5,1.1-1.1S117.7,30,117,30
		h-3.5v-5.6H118z"/>
	<path id="XMLID_48_" class="st3" d="M128.1,31L128.1,31L128.1,31l3.1-7.3c0.2-0.3,0.1-0.7-0.1-1c-0.2-0.3-0.5-0.5-0.9-0.5
		c-0.4,0-0.9,0.3-1,0.7l-2.5,5.7l-2.5-5.7c-0.2-0.4-0.6-0.7-1.1-0.7c-0.4,0-0.8,0.2-1,0.5c-0.2,0.3-0.2,0.8-0.1,1.1l3.1,7.1l0,0.1
		l0,0l-3.4,7.8c-0.2,0.3-0.1,0.7,0.1,1c0.2,0.3,0.5,0.5,0.9,0.5c0.4,0,0.8-0.2,1-0.6l2.8-6.4l2.7,6.2c0.2,0.5,0.6,0.8,1.1,0.8
		c0.4,0,0.8-0.2,1-0.5c0.2-0.3,0.3-0.7,0.1-1.1L128.1,31z"/>
	<path id="XMLID_47_" class="st3" d="M141.8,22.2L141.8,22.2c-0.7,0-1.2,0.5-1.2,1.2v6.8h-4v-6.8c0-0.7-0.5-1.2-1.2-1.2
		s-1.2,0.5-1.2,1.2v15.8c0,0.7,0.5,1.2,1.2,1.2s1.2-0.5,1.2-1.2v-6.8h4v6.8c0,0.7,0.5,1.2,1.2,1.2c0.7,0,1.2-0.5,1.2-1.2V23.3
		C143,22.7,142.5,22.2,141.8,22.2z"/>
	<path id="XMLID_37_" class="st3" d="M154.4,22.2l-0.4-0.1c-0.6,0-1.2,0.4-1.4,1l-3.7,10.4V23.3c0-0.6-0.5-1.1-1.1-1.1
		c-0.6,0-1.1,0.5-1.1,1.1V39c0,0.6,0.4,1.2,1,1.3l0.1,0c0.6,0.1,1.3-0.3,1.5-0.9l3.9-11.2v11c0,0.6,0.5,1.1,1.1,1.1
		c0.6,0,1.1-0.5,1.1-1.1V23.6C155.4,23,155,22.4,154.4,22.2z"/>
	<path id="XMLID_36_" class="st3" d="M163.3,30.7l4.2-6.8c0.2-0.3,0.2-0.8,0-1.1c-0.2-0.4-0.6-0.6-1-0.6c-0.4,0-0.7,0.2-0.9,0.5
		l-4.2,6.9v-6.2c0-0.7-0.5-1.2-1.2-1.2s-1.2,0.5-1.2,1.2v15.8c0,0.7,0.5,1.2,1.2,1.2s1.2-0.5,1.2-1.2v-5.4l0.5-0.9l4,6.9
		c0.2,0.3,0.6,0.5,1,0.5c0.4,0,0.8-0.2,1-0.5c0.2-0.3,0.2-0.8,0-1.1L163.3,30.7z"/>
	<path id="XMLID_84_" class="st3" d="M180.2,38.9l-3.5-15.5c-0.2-0.7-0.8-1.3-1.6-1.3c-0.8,0-1.4,0.5-1.6,1.3L170.1,39
		c-0.1,0.3,0,0.7,0.3,0.9c0.2,0.2,0.5,0.4,0.9,0.4c0.5,0,1-0.4,1.1-0.9l0.7-2.9h4.3l0.6,2.8c0.1,0.6,0.6,0.9,1.1,0.9
		c0.4,0,0.7-0.2,0.9-0.4C180.2,39.6,180.2,39.3,180.2,38.9z M173.4,34.4l1.7-7.6l1.7,7.6H173.4z"/>
</g>
<g id="XMLID_125_">
	<path id="XMLID_183_" class="st4" d="M64,53v-5.9h0.7v4.6l3.4-4.6h0.8V53h-0.7v-4.7L64.7,53H64z"/>
	<path id="XMLID_181_" class="st4" d="M70.6,53v-4.3h0.7v1.8h2.2v-1.8h0.7V53h-0.7v-1.9h-2.2V53H70.6z"/>
	<path id="XMLID_179_" class="st4" d="M76.7,53v-3.7h-1.2v-0.6h3.2v0.6h-1.3V53H76.7z"/>
	<path id="XMLID_176_" class="st4" d="M79.6,50.8c0-1.2,0.9-2.3,2.1-2.3c1.3,0,2.1,1,2.1,2.3v0.2h-3.5c0.1,0.8,0.6,1.5,1.6,1.5
		c0.5,0,1-0.2,1.3-0.5l0.3,0.4c-0.4,0.4-1,0.7-1.7,0.7C80.5,53.1,79.6,52.2,79.6,50.8z M81.7,49.1c-0.9,0-1.4,0.8-1.4,1.4h2.8
		C83.1,49.9,82.7,49.1,81.7,49.1z"/>
	<path id="XMLID_173_" class="st4" d="M85.9,52.3v2.3h-0.7v-5.9h0.7v0.6c0.3-0.4,0.8-0.7,1.5-0.7c1.1,0,1.9,0.9,1.9,2.3
		c0,1.4-0.8,2.3-1.9,2.3C86.8,53.1,86.3,52.8,85.9,52.3z M88.6,50.8c0-1-0.5-1.7-1.4-1.7c-0.5,0-1.1,0.3-1.3,0.7v1.9
		c0.2,0.4,0.8,0.7,1.3,0.7C88.1,52.5,88.6,51.8,88.6,50.8z"/>
	<path id="XMLID_171_" class="st4" d="M90.7,53v-4.3h0.7v1.8h2.2v-1.8h0.7V53h-0.7v-1.9h-2.2V53H90.7z"/>
	<path id="XMLID_168_" class="st4" d="M95.7,50.8c0-1.2,0.9-2.3,2.1-2.3c1.3,0,2.1,1,2.1,2.3v0.2h-3.5c0.1,0.8,0.6,1.5,1.6,1.5
		c0.5,0,1-0.2,1.3-0.5l0.3,0.4c-0.4,0.4-1,0.7-1.7,0.7C96.6,53.1,95.7,52.2,95.7,50.8z M97.8,49.1c-0.9,0-1.4,0.8-1.4,1.4h2.8
		C99.2,49.9,98.8,49.1,97.8,49.1z"/>
	<path id="XMLID_166_" class="st4" d="M102.1,53v-3.7h-1.2v-0.6h3.2v0.6h-1.3V53H102.1z"/>
	<path id="XMLID_164_" class="st4" d="M104.9,51.1v-0.6h2.1v0.6H104.9z"/>
	<path id="XMLID_162_" class="st4" d="M112.1,53v-3.4l-1.4,3.4h-0.2l-1.4-3.4V53h-0.7v-4.3h0.9l1.3,3.2l1.3-3.2h0.9V53H112.1z"/>
	<path id="XMLID_159_" class="st4" d="M117.1,53v-0.5c-0.4,0.4-0.8,0.6-1.4,0.6c-0.7,0-1.5-0.5-1.5-1.4c0-1,0.8-1.4,1.5-1.4
		c0.6,0,1.1,0.2,1.4,0.6v-0.8c0-0.6-0.5-0.9-1.1-0.9c-0.5,0-0.9,0.2-1.3,0.6l-0.3-0.5c0.5-0.5,1-0.7,1.7-0.7c0.9,0,1.7,0.4,1.7,1.5
		v3H117.1z M117.1,52.1v-0.8c-0.3-0.4-0.7-0.5-1.2-0.5c-0.6,0-1.1,0.4-1.1,0.9c0,0.5,0.4,0.9,1.1,0.9
		C116.4,52.6,116.9,52.4,117.1,52.1z"/>
	<path id="XMLID_157_" class="st4" d="M122.5,49.3h-2.3V53h-0.7v-4.3h3V49.3z"/>
	<path id="XMLID_154_" class="st4" d="M126.4,53v-0.5c-0.4,0.4-0.8,0.6-1.4,0.6c-0.7,0-1.5-0.5-1.5-1.4c0-1,0.8-1.4,1.5-1.4
		c0.6,0,1.1,0.2,1.4,0.6v-0.8c0-0.6-0.5-0.9-1.1-0.9c-0.5,0-0.9,0.2-1.3,0.6l-0.3-0.5c0.5-0.5,1-0.7,1.7-0.7c0.9,0,1.7,0.4,1.7,1.5
		v3H126.4z M126.4,52.1v-0.8c-0.3-0.4-0.7-0.5-1.2-0.5c-0.6,0-1.1,0.4-1.1,0.9c0,0.5,0.4,0.9,1.1,0.9
		C125.7,52.6,126.2,52.4,126.4,52.1z"/>
	<path id="XMLID_152_" class="st4" d="M128.4,52.4l0.3-0.4c0.4,0.4,1,0.6,1.6,0.6c0.8,0,1.3-0.3,1.3-0.7c0-0.5-0.6-0.7-1.4-0.7h-1
		v-0.5h1c0.7,0,1.3-0.2,1.3-0.7c0-0.4-0.5-0.7-1.3-0.7c-0.6,0-1.1,0.2-1.4,0.6l-0.3-0.4c0.4-0.4,1-0.7,1.8-0.7c1.2,0,2,0.4,2,1.2
		c0,0.6-0.7,1-1.2,1.1c0.5,0,1.2,0.3,1.2,1.1c0,0.7-0.7,1.3-2,1.3C129.4,53.1,128.8,52.8,128.4,52.4z"/>
	<path id="XMLID_150_" class="st4" d="M133.7,53v-4.3h0.7V52l2.3-3.3h0.7V53h-0.7v-3.4l-2.3,3.4H133.7z"/>
	<path id="XMLID_148_" class="st4" d="M139,53v-4.3h0.7v1.8h2.2v-1.8h0.7V53h-0.7v-1.9h-2.2V53H139z"/>
	<path id="XMLID_146_" class="st4" d="M146.7,50.8c0-1.3,0.9-2.3,2.1-2.3c0.8,0,1.2,0.3,1.6,0.7l-0.4,0.4c-0.3-0.4-0.7-0.6-1.1-0.6
		c-0.9,0-1.5,0.7-1.5,1.7c0,1,0.6,1.7,1.5,1.7c0.4,0,0.8-0.2,1.1-0.6l0.4,0.4c-0.3,0.4-0.8,0.7-1.6,0.7
		C147.6,53.1,146.7,52.1,146.7,50.8z"/>
	<path id="XMLID_143_" class="st4" d="M154.4,53v-0.5c-0.4,0.4-0.8,0.6-1.4,0.6c-0.7,0-1.5-0.5-1.5-1.4c0-1,0.8-1.4,1.5-1.4
		c0.6,0,1.1,0.2,1.4,0.6v-0.8c0-0.6-0.5-0.9-1.1-0.9c-0.5,0-0.9,0.2-1.3,0.6l-0.3-0.5c0.5-0.5,1-0.7,1.7-0.7c0.9,0,1.7,0.4,1.7,1.5
		v3H154.4z M154.4,52.1v-0.8c-0.3-0.4-0.7-0.5-1.2-0.5c-0.6,0-1.1,0.4-1.1,0.9c0,0.5,0.4,0.9,1.1,0.9
		C153.7,52.6,154.1,52.4,154.4,52.1z"/>
	<path id="XMLID_141_" class="st4" d="M156.8,53v-4.3h0.7v1.8h2.2v-1.8h0.7V53h-0.7v-1.9h-2.2V53H156.8z"/>
	<path id="XMLID_139_" class="st4" d="M162.8,53v-3.7h-1.2v-0.6h3.2v0.6h-1.3V53H162.8z"/>
	<path id="XMLID_136_" class="st4" d="M165.7,50.8c0-1.2,0.9-2.3,2.1-2.3c1.3,0,2.1,1,2.1,2.3v0.2h-3.5c0.1,0.8,0.6,1.5,1.6,1.5
		c0.5,0,1-0.2,1.3-0.5l0.3,0.4c-0.4,0.4-1,0.7-1.7,0.7C166.7,53.1,165.7,52.2,165.7,50.8z M167.8,49.1c-0.9,0-1.4,0.8-1.4,1.4h2.8
		C169.3,49.9,168.8,49.1,167.8,49.1z"/>
	<path id="XMLID_134_" class="st4" d="M174.2,53l-1.3-1.8l-1.3,1.8h-0.8l1.6-2.2l-1.6-2.1h0.8l1.2,1.6l1.2-1.6h0.8l-1.6,2.1l1.7,2.2
		H174.2z"/>
	<path id="XMLID_132_" class="st4" d="M176.1,53v-4.3h0.7v1.8h2.2v-1.8h0.7V53H179v-1.9h-2.2V53H176.1z"/>
	<path id="XMLID_130_" class="st4" d="M181.3,53v-4.3h0.7V52l2.3-3.3h0.7V53h-0.7v-3.4L182,53H181.3z"/>
	<path id="XMLID_128_" class="st4" d="M189.5,53l-1.6-1.9l-0.7,0.7V53h-0.7v-4.3h0.7V51l2.3-2.3h0.8l-1.9,2l1.9,2.4H189.5z"/>
	<path id="XMLID_126_" class="st4" d="M191.6,53v-4.3h0.7V52l2.3-3.3h0.7V53h-0.7v-3.4l-2.3,3.4H191.6z"/>
</g>
</svg>
